<svg xmlns="http://www.w3.org/2000/svg" xmlns:xlink="http://www.w3.org/1999/xlink" width="500" zoomAndPan="magnify" viewBox="0 0 375 374.999991" height="500" preserveAspectRatio="xMidYMid meet" version="1.0"><defs><g/><clipPath id="d29aad1b99"><path d="M 86.847656 199.511719 L 287.847656 199.511719 L 287.847656 256.492188 L 86.847656 256.492188 Z M 86.847656 199.511719 " clip-rule="nonzero"/></clipPath></defs><g fill="#d5b26b" fill-opacity="1"><g transform="translate(95.530239, 156.739119)"><g><path d="M 42.234375 -42.625 L 27.640625 -25.265625 L 41.03125 -2.578125 L 25.734375 0.125 L 15.703125 -13.453125 L 15.171875 -0.53125 L 1.453125 0 L 2.5 -47.234375 L 17.875 -46.390625 L 16.6875 -32.796875 L 26.265625 -46.578125 Z M 42.234375 -42.625 "/></g></g></g><g fill="#d5b26b" fill-opacity="1"><g transform="translate(134.880756, 156.739119)"><g><path d="M 38.5 -26.65625 C 38.5 -24.738281 38.367188 -22.828125 38.109375 -20.921875 C 34.347656 -20.671875 30.609375 -20.273438 26.890625 -19.734375 C 23.171875 -19.203125 19.453125 -18.671875 15.734375 -18.140625 C 16.304688 -16.554688 17.203125 -15.289062 18.421875 -14.34375 C 19.640625 -13.40625 21.097656 -12.9375 22.796875 -12.9375 C 23.671875 -12.9375 24.628906 -13.097656 25.671875 -13.421875 C 26.722656 -13.753906 27.765625 -14.164062 28.796875 -14.65625 C 29.828125 -15.15625 30.816406 -15.691406 31.765625 -16.265625 C 32.710938 -16.835938 33.523438 -17.351562 34.203125 -17.8125 L 32.625 -2.84375 C 31.769531 -2.175781 30.84375 -1.613281 29.84375 -1.15625 C 28.84375 -0.695312 27.800781 -0.320312 26.71875 -0.03125 C 25.644531 0.25 24.554688 0.457031 23.453125 0.59375 C 22.359375 0.726562 21.28125 0.796875 20.21875 0.796875 C 18.039062 0.796875 16.050781 0.5 14.25 -0.09375 C 12.445312 -0.6875 10.8125 -1.515625 9.34375 -2.578125 C 7.882812 -3.648438 6.601562 -4.910156 5.5 -6.359375 C 4.40625 -7.816406 3.492188 -9.398438 2.765625 -11.109375 C 2.046875 -12.828125 1.5 -14.644531 1.125 -16.5625 C 0.75 -18.476562 0.5625 -20.410156 0.5625 -22.359375 C 0.5625 -24.410156 0.75 -26.457031 1.125 -28.5 C 1.5 -30.550781 2.0625 -32.519531 2.8125 -34.40625 C 3.570312 -36.300781 4.53125 -38.054688 5.6875 -39.671875 C 6.84375 -41.285156 8.191406 -42.695312 9.734375 -43.90625 C 11.273438 -45.113281 13.015625 -46.054688 14.953125 -46.734375 C 16.898438 -47.421875 19.050781 -47.765625 21.40625 -47.765625 C 23.363281 -47.765625 25.148438 -47.492188 26.765625 -46.953125 C 28.390625 -46.421875 29.832031 -45.675781 31.09375 -44.71875 C 32.351562 -43.757812 33.453125 -42.617188 34.390625 -41.296875 C 35.328125 -39.984375 36.097656 -38.539062 36.703125 -36.96875 C 37.304688 -35.394531 37.753906 -33.734375 38.046875 -31.984375 C 38.347656 -30.234375 38.5 -28.457031 38.5 -26.65625 Z M 25.296875 -28.375 C 25.296875 -28.988281 25.226562 -29.617188 25.09375 -30.265625 C 24.96875 -30.910156 24.753906 -31.5 24.453125 -32.03125 C 24.160156 -32.5625 23.769531 -32.992188 23.28125 -33.328125 C 22.800781 -33.671875 22.195312 -33.84375 21.46875 -33.84375 C 20.59375 -33.84375 19.816406 -33.601562 19.140625 -33.125 C 18.472656 -32.65625 17.894531 -32.0625 17.40625 -31.34375 C 16.925781 -30.632812 16.53125 -29.863281 16.21875 -29.03125 C 15.914062 -28.195312 15.6875 -27.425781 15.53125 -26.71875 L 25.296875 -27.640625 Z M 25.296875 -28.375 "/></g></g></g><g fill="#d5b26b" fill-opacity="1"><g transform="translate(172.483138, 156.739119)"><g><path d="M 42.234375 -42.625 L 27.640625 -25.265625 L 41.03125 -2.578125 L 25.734375 0.125 L 15.703125 -13.453125 L 15.171875 -0.53125 L 1.453125 0 L 2.5 -47.234375 L 17.875 -46.390625 L 16.6875 -32.796875 L 26.265625 -46.578125 Z M 42.234375 -42.625 "/></g></g></g><g fill="#d5b26b" fill-opacity="1"><g transform="translate(211.833654, 156.739119)"><g><path d="M 18.90625 -46.453125 L 16.59375 -1.515625 L 2.671875 -0.796875 L 1.359375 -45.53125 Z M 18.90625 -46.453125 "/></g></g></g><g fill="#d5b26b" fill-opacity="1"><g transform="translate(230.371484, 156.739119)"><g><path d="M 14.1875 -41.625 C 14.164062 -40.59375 13.9375 -39.453125 13.5 -38.203125 C 13.070312 -36.953125 12.460938 -35.710938 11.671875 -34.484375 C 10.878906 -33.265625 9.925781 -32.109375 8.8125 -31.015625 C 7.707031 -29.929688 6.460938 -29.03125 5.078125 -28.3125 C 5.078125 -28.332031 5.066406 -28.585938 5.046875 -29.078125 C 5.023438 -29.578125 5 -30.179688 4.96875 -30.890625 C 4.9375 -31.609375 4.894531 -32.375 4.84375 -33.1875 C 4.800781 -34 4.769531 -34.722656 4.75 -35.359375 C 3.382812 -35.867188 2.304688 -36.71875 1.515625 -37.90625 C 0.722656 -39.09375 0.328125 -40.398438 0.328125 -41.828125 C 0.328125 -42.773438 0.507812 -43.664062 0.875 -44.5 C 1.238281 -45.332031 1.734375 -46.0625 2.359375 -46.6875 C 2.984375 -47.320312 3.710938 -47.828125 4.546875 -48.203125 C 5.390625 -48.578125 6.289062 -48.765625 7.25 -48.765625 C 8.195312 -48.765625 9.09375 -48.578125 9.9375 -48.203125 C 10.789062 -47.828125 11.53125 -47.320312 12.15625 -46.6875 C 12.78125 -46.0625 13.28125 -45.332031 13.65625 -44.5 C 14.03125 -43.664062 14.207031 -42.773438 14.1875 -41.828125 Z M 14.1875 -41.625 "/></g></g></g><g fill="#d5b26b" fill-opacity="1"><g transform="translate(243.532979, 156.739119)"><g><path d="M 35.5 -16.890625 C 35.5 -13.878906 34.972656 -11.28125 33.921875 -9.09375 C 32.878906 -6.90625 31.453125 -5.097656 29.640625 -3.671875 C 27.828125 -2.253906 25.703125 -1.207031 23.265625 -0.53125 C 20.835938 0.132812 18.226562 0.46875 15.4375 0.46875 C 14.363281 0.46875 13.179688 0.320312 11.890625 0.03125 C 10.609375 -0.25 9.304688 -0.601562 7.984375 -1.03125 C 6.660156 -1.46875 5.390625 -1.929688 4.171875 -2.421875 C 2.953125 -2.921875 1.867188 -3.390625 0.921875 -3.828125 L 2.375 -16.765625 C 4.238281 -15.640625 6.3125 -14.785156 8.59375 -14.203125 C 10.875 -13.617188 13.113281 -13.328125 15.3125 -13.328125 C 15.726562 -13.328125 16.234375 -13.34375 16.828125 -13.375 C 17.421875 -13.40625 17.984375 -13.503906 18.515625 -13.671875 C 19.054688 -13.835938 19.515625 -14.082031 19.890625 -14.40625 C 20.265625 -14.738281 20.453125 -15.210938 20.453125 -15.828125 C 20.453125 -16.253906 20.316406 -16.613281 20.046875 -16.90625 C 19.785156 -17.207031 19.445312 -17.445312 19.03125 -17.625 C 18.613281 -17.8125 18.140625 -17.953125 17.609375 -18.046875 C 17.085938 -18.148438 16.570312 -18.222656 16.0625 -18.265625 C 15.5625 -18.316406 15.085938 -18.34375 14.640625 -18.34375 C 14.203125 -18.34375 13.851562 -18.34375 13.59375 -18.34375 C 11.695312 -18.34375 9.972656 -18.640625 8.421875 -19.234375 C 6.878906 -19.828125 5.550781 -20.664062 4.4375 -21.75 C 3.320312 -22.84375 2.457031 -24.164062 1.84375 -25.71875 C 1.226562 -27.269531 0.921875 -28.988281 0.921875 -30.875 C 0.921875 -33.46875 1.441406 -35.789062 2.484375 -37.84375 C 3.535156 -39.90625 4.929688 -41.65625 6.671875 -43.09375 C 8.421875 -44.539062 10.425781 -45.648438 12.6875 -46.421875 C 14.957031 -47.191406 17.304688 -47.578125 19.734375 -47.578125 C 20.804688 -47.578125 21.914062 -47.535156 23.0625 -47.453125 C 24.207031 -47.378906 25.34375 -47.242188 26.46875 -47.046875 C 27.601562 -46.847656 28.707031 -46.59375 29.78125 -46.28125 C 30.863281 -45.976562 31.890625 -45.59375 32.859375 -45.125 L 31.609375 -31.734375 C 30.109375 -32.242188 28.535156 -32.664062 26.890625 -33 C 25.253906 -33.34375 23.660156 -33.515625 22.109375 -33.515625 C 21.816406 -33.515625 21.445312 -33.507812 21 -33.5 C 20.550781 -33.488281 20.078125 -33.453125 19.578125 -33.390625 C 19.085938 -33.335938 18.585938 -33.253906 18.078125 -33.140625 C 17.566406 -33.035156 17.113281 -32.890625 16.71875 -32.703125 C 16.320312 -32.515625 16.003906 -32.265625 15.765625 -31.953125 C 15.523438 -31.648438 15.414062 -31.289062 15.4375 -30.875 C 15.457031 -30.394531 15.640625 -30.019531 15.984375 -29.75 C 16.328125 -29.488281 16.765625 -29.296875 17.296875 -29.171875 C 17.835938 -29.054688 18.429688 -29 19.078125 -29 C 19.734375 -29 20.378906 -29.015625 21.015625 -29.046875 C 21.648438 -29.078125 22.242188 -29.109375 22.796875 -29.140625 C 23.347656 -29.179688 23.796875 -29.1875 24.140625 -29.15625 C 25.898438 -29.050781 27.484375 -28.675781 28.890625 -28.03125 C 30.304688 -27.394531 31.503906 -26.550781 32.484375 -25.5 C 33.460938 -24.445312 34.207031 -23.1875 34.71875 -21.71875 C 35.238281 -20.257812 35.5 -18.648438 35.5 -16.890625 Z M 35.5 -16.890625 "/></g></g></g><g fill="#d5b26b" fill-opacity="1"><g transform="translate(68.903659, 210.308993)"><g><path d="M 40.078125 -11.75 C 40.078125 -9.914062 39.738281 -8.335938 39.0625 -7.015625 C 38.394531 -5.703125 37.5 -4.582031 36.375 -3.65625 C 35.257812 -2.738281 33.96875 -1.988281 32.5 -1.40625 C 31.039062 -0.820312 29.519531 -0.363281 27.9375 -0.03125 C 26.351562 0.300781 24.765625 0.519531 23.171875 0.625 C 21.578125 0.738281 20.085938 0.796875 18.703125 0.796875 C 17.335938 0.796875 15.921875 0.742188 14.453125 0.640625 C 12.992188 0.546875 11.539062 0.375 10.09375 0.125 C 8.644531 -0.113281 7.210938 -0.4375 5.796875 -0.84375 C 4.390625 -1.25 3.0625 -1.757812 1.8125 -2.375 L 1.75 -44.859375 C 2.976562 -45.367188 4.285156 -45.828125 5.671875 -46.234375 C 7.054688 -46.640625 8.46875 -46.976562 9.90625 -47.25 C 11.351562 -47.53125 12.789062 -47.738281 14.21875 -47.875 C 15.644531 -48.019531 17.03125 -48.09375 18.375 -48.09375 C 19.9375 -48.09375 21.515625 -47.992188 23.109375 -47.796875 C 24.703125 -47.597656 26.234375 -47.269531 27.703125 -46.8125 C 29.179688 -46.351562 30.554688 -45.753906 31.828125 -45.015625 C 33.109375 -44.273438 34.226562 -43.363281 35.1875 -42.28125 C 36.144531 -41.207031 36.890625 -39.957031 37.421875 -38.53125 C 37.960938 -37.101562 38.234375 -35.453125 38.234375 -33.578125 C 38.234375 -32.347656 38.054688 -31.191406 37.703125 -30.109375 C 37.347656 -29.035156 36.84375 -28.070312 36.1875 -27.21875 C 35.53125 -26.363281 34.726562 -25.628906 33.78125 -25.015625 C 32.832031 -24.410156 31.765625 -23.96875 30.578125 -23.6875 C 32.003906 -23.3125 33.304688 -22.757812 34.484375 -22.03125 C 35.660156 -21.3125 36.660156 -20.429688 37.484375 -19.390625 C 38.316406 -18.359375 38.957031 -17.191406 39.40625 -15.890625 C 39.851562 -14.597656 40.078125 -13.21875 40.078125 -11.75 Z M 23.328125 -30.546875 C 23.328125 -31.179688 23.191406 -31.722656 22.921875 -32.171875 C 22.660156 -32.628906 22.335938 -33 21.953125 -33.28125 C 21.566406 -33.570312 21.148438 -33.78125 20.703125 -33.90625 C 20.253906 -34.039062 19.851562 -34.109375 19.5 -34.109375 C 19.0625 -34.109375 18.628906 -34.039062 18.203125 -33.90625 C 17.785156 -33.78125 17.378906 -33.628906 16.984375 -33.453125 L 16.796875 -26.125 C 17.296875 -26.125 17.921875 -26.164062 18.671875 -26.25 C 19.421875 -26.34375 20.140625 -26.535156 20.828125 -26.828125 C 21.523438 -27.128906 22.113281 -27.570312 22.59375 -28.15625 C 23.082031 -28.738281 23.328125 -29.535156 23.328125 -30.546875 Z M 18.640625 -19.796875 C 18.003906 -19.796875 17.390625 -19.726562 16.796875 -19.59375 L 16.65625 -12.078125 C 16.988281 -12.003906 17.3125 -11.941406 17.625 -11.890625 C 17.945312 -11.835938 18.265625 -11.8125 18.578125 -11.8125 C 19.035156 -11.8125 19.539062 -11.859375 20.09375 -11.953125 C 20.644531 -12.054688 21.160156 -12.253906 21.640625 -12.546875 C 22.117188 -12.847656 22.519531 -13.25 22.84375 -13.75 C 23.164062 -14.257812 23.328125 -14.929688 23.328125 -15.765625 C 23.328125 -16.597656 23.164062 -17.28125 22.84375 -17.8125 C 22.519531 -18.34375 22.128906 -18.753906 21.671875 -19.046875 C 21.210938 -19.347656 20.707031 -19.546875 20.15625 -19.640625 C 19.601562 -19.742188 19.097656 -19.796875 18.640625 -19.796875 Z M 18.640625 -19.796875 "/></g></g></g><g fill="#d5b26b" fill-opacity="1"><g transform="translate(107.693453, 210.308993)"><g><path d="M 43.28125 -2.84375 L 26.921875 -0.71875 L 24.9375 -8.1875 L 17.421875 -8.1875 L 15.765625 -0.71875 L -1.0625 -2.375 L 12.078125 -46.3125 L 30.421875 -47.234375 Z M 23.75 -18.28125 L 21.25 -29.75 L 18.796875 -18.28125 Z M 23.75 -18.28125 "/></g></g></g><g fill="#d5b26b" fill-opacity="1"><g transform="translate(148.627185, 210.308993)"><g><path d="M 42.234375 -42.625 L 27.640625 -25.265625 L 41.03125 -2.578125 L 25.734375 0.125 L 15.703125 -13.453125 L 15.171875 -0.53125 L 1.453125 0 L 2.5 -47.234375 L 17.875 -46.390625 L 16.6875 -32.796875 L 26.265625 -46.578125 Z M 42.234375 -42.625 "/></g></g></g><g fill="#d5b26b" fill-opacity="1"><g transform="translate(187.977701, 210.308993)"><g><path d="M 38.5 -26.65625 C 38.5 -24.738281 38.367188 -22.828125 38.109375 -20.921875 C 34.347656 -20.671875 30.609375 -20.273438 26.890625 -19.734375 C 23.171875 -19.203125 19.453125 -18.671875 15.734375 -18.140625 C 16.304688 -16.554688 17.203125 -15.289062 18.421875 -14.34375 C 19.640625 -13.40625 21.097656 -12.9375 22.796875 -12.9375 C 23.671875 -12.9375 24.628906 -13.097656 25.671875 -13.421875 C 26.722656 -13.753906 27.765625 -14.164062 28.796875 -14.65625 C 29.828125 -15.15625 30.816406 -15.691406 31.765625 -16.265625 C 32.710938 -16.835938 33.523438 -17.351562 34.203125 -17.8125 L 32.625 -2.84375 C 31.769531 -2.175781 30.84375 -1.613281 29.84375 -1.15625 C 28.84375 -0.695312 27.800781 -0.320312 26.71875 -0.03125 C 25.644531 0.25 24.554688 0.457031 23.453125 0.59375 C 22.359375 0.726562 21.28125 0.796875 20.21875 0.796875 C 18.039062 0.796875 16.050781 0.5 14.25 -0.09375 C 12.445312 -0.6875 10.8125 -1.515625 9.34375 -2.578125 C 7.882812 -3.648438 6.601562 -4.910156 5.5 -6.359375 C 4.40625 -7.816406 3.492188 -9.398438 2.765625 -11.109375 C 2.046875 -12.828125 1.5 -14.644531 1.125 -16.5625 C 0.75 -18.476562 0.5625 -20.410156 0.5625 -22.359375 C 0.5625 -24.410156 0.75 -26.457031 1.125 -28.5 C 1.5 -30.550781 2.0625 -32.519531 2.8125 -34.40625 C 3.570312 -36.300781 4.53125 -38.054688 5.6875 -39.671875 C 6.84375 -41.285156 8.191406 -42.695312 9.734375 -43.90625 C 11.273438 -45.113281 13.015625 -46.054688 14.953125 -46.734375 C 16.898438 -47.421875 19.050781 -47.765625 21.40625 -47.765625 C 23.363281 -47.765625 25.148438 -47.492188 26.765625 -46.953125 C 28.390625 -46.421875 29.832031 -45.675781 31.09375 -44.71875 C 32.351562 -43.757812 33.453125 -42.617188 34.390625 -41.296875 C 35.328125 -39.984375 36.097656 -38.539062 36.703125 -36.96875 C 37.304688 -35.394531 37.753906 -33.734375 38.046875 -31.984375 C 38.347656 -30.234375 38.5 -28.457031 38.5 -26.65625 Z M 25.296875 -28.375 C 25.296875 -28.988281 25.226562 -29.617188 25.09375 -30.265625 C 24.96875 -30.910156 24.753906 -31.5 24.453125 -32.03125 C 24.160156 -32.5625 23.769531 -32.992188 23.28125 -33.328125 C 22.800781 -33.671875 22.195312 -33.84375 21.46875 -33.84375 C 20.59375 -33.84375 19.816406 -33.601562 19.140625 -33.125 C 18.472656 -32.65625 17.894531 -32.0625 17.40625 -31.34375 C 16.925781 -30.632812 16.53125 -29.863281 16.21875 -29.03125 C 15.914062 -28.195312 15.6875 -27.425781 15.53125 -26.71875 L 25.296875 -27.640625 Z M 25.296875 -28.375 "/></g></g></g><g fill="#d5b26b" fill-opacity="1"><g transform="translate(225.580083, 210.308993)"><g><path d="M 40.34375 -31.796875 C 40.34375 -30.085938 40.191406 -28.53125 39.890625 -27.125 C 39.597656 -25.726562 39.132812 -24.445312 38.5 -23.28125 C 37.863281 -22.125 37.035156 -21.050781 36.015625 -20.0625 C 35.003906 -19.070312 33.785156 -18.125 32.359375 -17.21875 L 40.21875 -3.234375 L 25.375 -0.328125 L 20.28125 -14.390625 L 16.203125 -14.25 L 15.609375 -0.53125 L 1.421875 -0.53125 C 1.523438 -5.539062 1.625 -10.53125 1.71875 -15.5 C 1.820312 -20.46875 1.941406 -25.460938 2.078125 -30.484375 C 2.117188 -33.015625 2.160156 -35.519531 2.203125 -38 C 2.253906 -40.488281 2.34375 -43 2.46875 -45.53125 C 4.007812 -46.101562 5.523438 -46.570312 7.015625 -46.9375 C 8.515625 -47.3125 10.019531 -47.601562 11.53125 -47.8125 C 13.039062 -48.019531 14.566406 -48.160156 16.109375 -48.234375 C 17.660156 -48.316406 19.25 -48.359375 20.875 -48.359375 C 23.382812 -48.359375 25.8125 -48.007812 28.15625 -47.3125 C 30.5 -46.625 32.570312 -45.585938 34.375 -44.203125 C 36.175781 -42.816406 37.617188 -41.085938 38.703125 -39.015625 C 39.796875 -36.953125 40.34375 -34.546875 40.34375 -31.796875 Z M 25.5625 -30.75 C 25.5625 -31.664062 25.4375 -32.507812 25.1875 -33.28125 C 24.9375 -34.050781 24.5625 -34.71875 24.0625 -35.28125 C 23.570312 -35.84375 22.957031 -36.28125 22.21875 -36.59375 C 21.476562 -36.914062 20.613281 -37.078125 19.625 -37.078125 C 19.1875 -37.078125 18.757812 -37.050781 18.34375 -37 C 17.925781 -36.945312 17.519531 -36.863281 17.125 -36.75 L 16.59375 -24.484375 L 17.390625 -24.484375 C 18.328125 -24.484375 19.285156 -24.601562 20.265625 -24.84375 C 21.242188 -25.082031 22.125 -25.453125 22.90625 -25.953125 C 23.6875 -26.460938 24.320312 -27.113281 24.8125 -27.90625 C 25.3125 -28.695312 25.5625 -29.644531 25.5625 -30.75 Z M 25.5625 -30.75 "/></g></g></g><g fill="#d5b26b" fill-opacity="1"><g transform="translate(265.161485, 210.308993)"><g><path d="M 42.359375 -44.671875 L 26.859375 -19.328125 L 27.3125 -0.65625 L 10.359375 -0.65625 L 10.75 -19.203125 L -1.3125 -43.671875 L 15.5 -45.796875 L 20.78125 -31.53125 L 26.53125 -45.796875 Z M 42.359375 -44.671875 "/></g></g></g><g clip-path="url(#d29aad1b99)"><path fill="#471d06" d="M 247.28125 227.886719 C 246.203125 228.625 245.097656 229.34375 243.972656 230.039062 L 240.988281 227.078125 L 234.761719 220.253906 C 233.308594 218.65625 230.832031 218.542969 229.234375 220 L 229.175781 220.050781 C 227.578125 221.507812 227.464844 223.980469 228.921875 225.578125 L 236.710938 234.121094 C 236.554688 234.203125 236.386719 234.292969 236.210938 234.382812 L 236.210938 234.375 C 233.890625 235.5625 231.636719 236.636719 229.457031 237.617188 L 220.695312 228.011719 C 216.429688 223.335938 216.765625 216.058594 221.445312 211.792969 L 221.722656 211.539062 C 226.398438 207.273438 233.675781 207.605469 237.941406 212.285156 L 243.890625 218.8125 C 243.894531 218.816406 247.519531 222.910156 250.066406 225.976562 C 249.136719 226.628906 248.210938 227.265625 247.28125 227.886719 Z M 288.132812 213.265625 L 288.101562 213.039062 C 287.800781 210.859375 285.929688 209.207031 283.753906 209.199219 C 277.132812 209.175781 273.429688 204.496094 271.8125 201.710938 C 271.03125 200.355469 269.566406 199.515625 267.996094 199.515625 C 267.464844 199.515625 266.9375 199.609375 266.433594 199.800781 L 266.214844 199.882812 C 264.996094 200.34375 264.046875 201.3125 263.609375 202.542969 C 263.175781 203.773438 263.304688 205.132812 263.960938 206.265625 C 265.070312 208.160156 266.375 209.890625 267.828125 211.40625 C 267.859375 211.4375 267.886719 211.46875 267.917969 211.496094 C 264.191406 214.929688 260.425781 218.132812 256.636719 221.09375 L 248.011719 211.261719 L 243.949219 206.808594 C 236.660156 198.816406 224.234375 198.246094 216.242188 205.53125 L 215.964844 205.785156 C 207.976562 213.070312 207.402344 225.5 214.6875 233.492188 L 221.539062 241 C 220.601562 241.3125 219.660156 241.628906 218.726562 241.953125 C 216.511719 242.71875 214.425781 243.359375 212.460938 243.9375 L 212.460938 243.964844 C 211.539062 244.21875 210.667969 244.449219 209.886719 244.652344 C 208.796875 244.945312 207.753906 245.207031 206.761719 245.441406 C 206.410156 245.527344 206.214844 245.570312 206.214844 245.570312 C 206.015625 245.613281 205.820312 245.660156 205.628906 245.703125 C 205.523438 245.726562 205.414062 245.75 205.308594 245.773438 C 205.15625 245.804688 205.003906 245.839844 204.855469 245.875 C 204.855469 245.875 204.816406 245.882812 204.742188 245.898438 L 204.742188 245.894531 C 201.183594 246.65625 198.417969 247.042969 196.613281 247.234375 L 196.613281 247.246094 C 196.578125 247.25 196.546875 247.253906 196.515625 247.257812 C 194.292969 247.484375 192.066406 247.632812 189.84375 247.703125 C 189.597656 247.703125 189.367188 247.710938 189.152344 247.722656 C 188.410156 247.738281 187.667969 247.75 186.929688 247.75 C 185.589844 247.75 184.234375 247.71875 182.894531 247.664062 C 158.097656 246.601562 137.429688 235.753906 124.453125 226.839844 C 116.554688 221.414062 110.457031 216.03125 106.449219 212.144531 C 106.703125 211.902344 106.949219 211.65625 107.191406 211.40625 C 108.636719 209.902344 109.933594 208.183594 111.035156 206.300781 C 111.703125 205.160156 111.832031 203.792969 111.390625 202.550781 C 110.953125 201.3125 109.996094 200.335938 108.761719 199.875 L 108.582031 199.808594 C 108.082031 199.617188 107.558594 199.523438 107.023438 199.523438 C 105.453125 199.523438 103.976562 200.371094 103.175781 201.734375 C 102.441406 202.984375 101.585938 204.121094 100.636719 205.105469 C 98.039062 207.808594 94.902344 209.1875 91.320312 209.203125 C 89.113281 209.210938 87.21875 210.863281 86.917969 213.042969 L 86.886719 213.265625 C 86.714844 214.535156 87.097656 215.820312 87.9375 216.789062 C 88.769531 217.742188 89.96875 218.292969 91.210938 218.292969 L 91.261719 218.292969 C 93.777344 218.292969 96.203125 217.886719 98.496094 217.082031 C 102.230469 220.84375 109.34375 227.46875 119.136719 234.21875 C 128.003906 240.328125 137.261719 245.292969 146.652344 248.980469 C 158.453125 253.613281 170.492188 256.226562 182.445312 256.742188 C 183.941406 256.808594 185.457031 256.839844 186.957031 256.839844 C 200.917969 256.839844 214.730469 254.015625 228.320312 248.410156 C 230.921875 247.339844 233.511719 246.164062 236.09375 244.886719 C 238.425781 243.738281 240.75 242.503906 243.066406 241.183594 C 245.585938 239.753906 248.089844 238.222656 250.589844 236.597656 C 259.050781 231.09375 267.402344 224.472656 275.628906 216.746094 C 278.179688 217.773438 280.910156 218.292969 283.757812 218.292969 L 283.792969 218.292969 C 285.050781 218.292969 286.25 217.742188 287.082031 216.789062 C 287.925781 215.820312 288.304688 214.539062 288.132812 213.265625 " fill-opacity="1" fill-rule="nonzero"/></g></svg>